<svg xmlns="http://www.w3.org/2000/svg" width="70" height="68" viewBox="0 0 70 68" fill="none"><path d="M11.2497 16.3603L6.27851 22.9298C5.72155 23.612 5.46078 24.4856 5.55354 25.3585C5.64631 26.2313 6.08503 27.0319 6.77317 27.584C7.46132 28.1362 8.34254 28.3947 9.22296 28.3027C10.1034 28.2108 10.9109 27.7758 11.4678 27.0936L14.0007 24.2009V26.5141L13.0673 32.5424C13.0273 32.8427 13.1077 33.1466 13.2912 33.3887C13.4748 33.6309 13.7468 33.792 14.0489 33.8375C14.351 33.8829 14.659 33.8091 14.9068 33.6318C15.1545 33.4545 15.3222 33.1879 15.3738 32.8894L16.3223 26.7732C16.3307 26.7165 16.3346 26.6593 16.334 26.602V21.1082C16.3341 20.8724 16.2615 20.6423 16.126 20.4487C15.9905 20.255 15.7985 20.107 15.5758 20.0244C15.3531 19.9419 15.1103 19.9288 14.8799 19.9869C14.6494 20.045 14.4424 20.1715 14.2865 20.3494L9.70618 25.5692C9.53655 25.7676 9.29538 25.8923 9.03422 25.9167C8.77306 25.9411 8.51263 25.8633 8.30859 25.6998C8.10456 25.5364 7.97312 25.3003 7.94236 25.042C7.91161 24.7838 7.98398 24.5238 8.14401 24.3177L13.1152 17.747C13.2094 17.6238 13.3311 17.5238 13.4707 17.4548C13.6104 17.3857 13.7642 17.3496 13.9202 17.3492H17.5007C17.8101 17.3492 18.1068 17.2273 18.3256 17.0104C18.5444 16.7935 18.6673 16.4993 18.6673 16.1926V15.5506C18.6669 15.348 18.6128 15.149 18.5105 14.9737C18.4081 14.7983 18.261 14.6526 18.084 14.5513C17.5523 14.2514 17.1103 13.8171 16.8029 13.2927C16.4955 12.7684 16.3337 12.1726 16.334 11.5661C16.334 10.6459 16.7028 9.76331 17.3591 9.11259C18.0155 8.46187 18.9058 8.0963 19.834 8.0963C20.7623 8.0963 21.6525 8.46187 22.3089 9.11259C22.9653 9.76331 23.334 10.6459 23.334 11.5661C23.3343 12.1726 23.1725 12.7684 22.8651 13.2927C22.5577 13.8171 22.1157 14.2514 21.584 14.5513C21.407 14.6526 21.2599 14.7983 21.1576 14.9737C21.0552 15.149 21.0011 15.348 21.0007 15.5506V16.1926C21.0007 16.4993 21.1236 16.7935 21.3424 17.0104C21.5612 17.2273 21.8579 17.3492 22.1673 17.3492H25.7478C25.9039 17.3496 26.0577 17.3857 26.1973 17.4548C26.3369 17.5238 26.4586 17.6238 26.5528 17.747L28.0007 19.6624H21.0007C20.6913 19.6624 20.3945 19.7842 20.1757 20.0012C19.9569 20.2181 19.834 20.5122 19.834 20.819C19.834 21.1258 19.9569 21.4199 20.1757 21.6368C20.3945 21.8538 20.6913 21.9756 21.0007 21.9756H23.334V26.602C23.334 26.6609 23.3387 26.7197 23.348 26.7779L23.684 28.9153H22.1673C21.8579 28.9153 21.5612 29.0371 21.3424 29.254C21.1236 29.4709 21.0007 29.7651 21.0007 30.0719C21.0007 30.3786 21.1236 30.6728 21.3424 30.8897C21.5612 31.1066 21.8579 31.2285 22.1673 31.2285H24.034L25.6767 41.8138C25.7191 42.0876 25.8593 42.3371 26.0717 42.5171C26.2841 42.6971 26.5546 42.7956 26.834 42.7946H28.0007C28.3101 42.7946 28.6068 42.9164 28.8256 43.1333C29.0444 43.3502 29.1673 43.6444 29.1673 43.9512V45.1078H23.334V41.638C23.3341 41.5436 23.3223 41.4496 23.299 41.3581L20.9657 32.1052C20.9025 31.8551 20.7568 31.6331 20.5517 31.4745C20.3467 31.3159 20.0941 31.2298 19.834 31.2298C19.5739 31.2298 19.3213 31.3159 19.1163 31.4745C18.9113 31.6331 18.7656 31.8551 18.7023 32.1052L16.369 41.3581C16.3457 41.4496 16.3339 41.5436 16.334 41.638V45.1078H10.5007V43.9512C10.5007 43.6444 10.6236 43.3502 10.8424 43.1333C11.0612 42.9164 11.3579 42.7946 11.6673 42.7946H12.834C13.1126 42.7945 13.382 42.6955 13.5934 42.5156C13.8048 42.3357 13.9443 42.0868 13.9867 41.8138L14.661 37.4684C14.6902 37.3156 14.6881 37.1586 14.6547 37.0067C14.6214 36.8548 14.5575 36.7111 14.4668 36.5842C14.3762 36.4574 14.2606 36.3499 14.1272 36.2683C13.9937 36.1867 13.845 36.1326 13.6899 36.1093C13.5349 36.0859 13.3767 36.0938 13.2248 36.1325C13.0729 36.1711 12.9304 36.2398 12.8058 36.3342C12.6813 36.4287 12.5772 36.5471 12.4999 36.6824C12.4225 36.8176 12.3735 36.9669 12.3557 37.1214L11.833 40.4814H11.6673C10.7391 40.4814 9.84885 40.8469 9.19247 41.4976C8.53609 42.1484 8.16734 43.0309 8.16734 43.9512V46.2644C8.16734 46.5712 8.29026 46.8653 8.50905 47.0822C8.72784 47.2992 9.02459 47.421 9.33401 47.421H17.5007C17.8101 47.421 18.1068 47.2992 18.3256 47.0822C18.5444 46.8653 18.6673 46.5712 18.6673 46.2644V41.7802L19.834 37.1538L21.0007 41.7802V46.2644C21.0007 46.5712 21.1236 46.8653 21.3424 47.0822C21.5612 47.2992 21.8579 47.421 22.1673 47.421H43.1673C43.4768 47.421 43.7735 47.2992 43.9923 47.0822C44.2111 46.8653 44.334 46.5712 44.334 46.2644V42.7946H46.6673C46.9768 42.7946 47.2735 42.6727 47.4923 42.4558C47.7111 42.2389 47.834 41.9447 47.834 41.638V37.0115C47.834 36.7048 47.7111 36.4106 47.4923 36.1937C47.2735 35.9768 46.9768 35.8549 46.6673 35.8549H39.6673C39.3579 35.8549 39.0612 35.9768 38.8424 36.1937C38.6236 36.4106 38.5007 36.7048 38.5007 37.0115C38.5007 37.3183 38.6236 37.6125 38.8424 37.8294C39.0612 38.0463 39.3579 38.1681 39.6673 38.1681H45.5007V40.4814H39.6673C39.3579 40.4814 39.0612 40.6032 38.8424 40.8201C38.6236 41.037 38.5007 41.3312 38.5007 41.638C38.5007 41.9447 38.6236 42.2389 38.8424 42.4558C39.0612 42.6727 39.3579 42.7946 39.6673 42.7946H42.0007V45.1078H31.5007V43.9512C31.5007 43.0309 31.1319 42.1484 30.4756 41.4976C29.8192 40.8469 28.9289 40.4814 28.0007 40.4814H27.835L26.3988 31.2285H38.5007V32.3851C38.5007 32.6918 38.6236 32.986 38.8424 33.2029C39.0612 33.4198 39.3579 33.5417 39.6673 33.5417H46.6673C46.9768 33.5417 47.2735 33.4198 47.4923 33.2029C47.7111 32.986 47.834 32.6918 47.834 32.3851V27.7587C47.834 27.4519 47.7111 27.1577 47.4923 26.9408C47.2735 26.7239 46.9768 26.602 46.6673 26.602H39.6673C39.3579 26.602 39.0612 26.7239 38.8424 26.9408C38.6236 27.1577 38.5007 27.4519 38.5007 27.7587V28.9153H26.0407L25.6673 26.5141V24.2009L28.2002 27.0924C28.767 27.7404 29.5654 28.1448 30.4272 28.2205C31.2889 28.2962 32.1466 28.0372 32.8195 27.4982C33.4924 26.9592 33.928 26.1822 34.0343 25.3311C34.1406 24.4799 33.9094 23.6211 33.3895 22.9356L32.6673 21.9756H42.0007V23.1322C42.0007 23.439 42.1236 23.7332 42.3424 23.9501C42.5612 24.167 42.8579 24.2888 43.1673 24.2888H50.1673C50.4768 24.2888 50.7735 24.167 50.9923 23.9501C51.2111 23.7332 51.334 23.439 51.334 23.1322V18.5058C51.334 18.199 51.2111 17.9048 50.9923 17.6879C50.7735 17.471 50.4768 17.3492 50.1673 17.3492H43.1673C42.8579 17.3492 42.5612 17.471 42.3424 17.6879C42.1236 17.9048 42.0007 18.199 42.0007 18.5058V19.6624H30.9173L28.4183 16.3603C28.1068 15.9499 27.7035 15.6167 27.2401 15.3869C26.7768 15.1571 26.266 15.037 25.7478 15.036H24.4797C24.9816 14.3856 25.3369 13.6361 25.5214 12.8379C25.706 12.0398 25.7156 11.2117 25.5495 10.4095H36.1673V11.5661C36.1673 11.8729 36.2903 12.1671 36.5091 12.384C36.7278 12.6009 37.0246 12.7227 37.334 12.7227H44.334C44.6434 12.7227 44.9402 12.6009 45.159 12.384C45.3778 12.1671 45.5007 11.8729 45.5007 11.5661V6.93969C45.5007 6.63294 45.3778 6.33875 45.159 6.12184C44.9402 5.90494 44.6434 5.78308 44.334 5.78308H37.334C37.0246 5.78308 36.7278 5.90494 36.5091 6.12184C36.2903 6.33875 36.1673 6.63294 36.1673 6.93969V8.0963H24.5007C24.4913 8.0963 24.4843 8.0963 24.475 8.0963C23.5468 6.87543 22.1673 6.07013 20.6401 5.85756C19.113 5.64499 17.5632 6.04257 16.3317 6.96282C15.1002 7.88308 14.2879 9.25063 14.0735 10.7646C13.8591 12.2786 14.2601 13.8151 15.1883 15.036H13.9202C13.4021 15.037 12.8913 15.1571 12.4279 15.3869C11.9645 15.6167 11.5612 15.9499 11.2497 16.3603ZM40.834 28.9153H45.5007V31.2285H40.834V28.9153ZM44.334 19.6624H49.0007V21.9756H44.334V19.6624ZM31.524 24.3189C31.6801 24.5253 31.7493 24.7836 31.7171 25.0396C31.6849 25.2955 31.5538 25.5291 31.3513 25.6911C31.1489 25.8532 30.8909 25.931 30.6318 25.9083C30.3726 25.8855 30.1324 25.764 29.9618 25.5692L26.8083 21.9756H29.7507L31.524 24.3189ZM38.5007 8.0963H43.1673V10.4095H38.5007V8.0963Z" fill="white"></path><path d="M60.6673 4.62646H56.0007C55.6912 4.62646 55.3945 4.74832 55.1757 4.96523C54.9569 5.18213 54.834 5.47632 54.834 5.78307V8.09629H52.5007C52.1912 8.09629 51.8945 8.21815 51.6757 8.43506C51.4569 8.65196 51.334 8.94615 51.334 9.2529V13.8793C51.334 14.1861 51.4569 14.4803 51.6757 14.6972C51.8945 14.9141 52.1912 15.0359 52.5007 15.0359H54.834V17.3492C54.834 17.6559 54.9569 17.9501 55.1757 18.167C55.3945 18.3839 55.6912 18.5058 56.0007 18.5058H60.6673C60.9767 18.5058 61.2735 18.3839 61.4923 18.167C61.7111 17.9501 61.834 17.6559 61.834 17.3492V15.0359H64.1673C64.4767 15.0359 64.7735 14.9141 64.9923 14.6972C65.2111 14.4803 65.334 14.1861 65.334 13.8793V9.2529C65.334 8.94615 65.2111 8.65196 64.9923 8.43506C64.7735 8.21815 64.4767 8.09629 64.1673 8.09629H61.834V5.78307C61.834 5.47632 61.7111 5.18213 61.4923 4.96523C61.2735 4.74832 60.9767 4.62646 60.6673 4.62646ZM63.0007 10.4095V12.7227H60.6673C60.3579 12.7227 60.0612 12.8446 59.8424 13.0615C59.6236 13.2784 59.5007 13.5726 59.5007 13.8793V16.1926H57.1673V13.8793C57.1673 13.5726 57.0444 13.2784 56.8256 13.0615C56.6068 12.8446 56.3101 12.7227 56.0007 12.7227H53.6673V10.4095H56.0007C56.3101 10.4095 56.6068 10.2877 56.8256 10.0707C57.0444 9.85384 57.1673 9.55965 57.1673 9.2529V6.93968H59.5007V9.2529C59.5007 9.55965 59.6236 9.85384 59.8424 10.0707C60.0612 10.2877 60.3579 10.4095 60.6673 10.4095H63.0007Z" fill="white"></path><path d="M64.1673 31.2284C64.4767 31.2284 64.7735 31.1065 64.9923 30.8896C65.2111 30.6727 65.334 30.3785 65.334 30.0718C65.334 29.765 65.2111 29.4708 64.9923 29.2539C64.7735 29.037 64.4767 28.9152 64.1673 28.9152H59.5007C59.1912 28.9152 58.8945 29.037 58.6757 29.2539C58.4569 29.4708 58.334 29.765 58.334 30.0718C58.334 30.3785 58.4569 30.6727 58.6757 30.8896C58.8945 31.1065 59.1912 31.2284 59.5007 31.2284H64.1673Z" fill="white"></path><path d="M56 34.6984C56 35.0051 56.1229 35.2993 56.3417 35.5162C56.5605 35.7331 56.8572 35.855 57.1667 35.855H64.1667C64.4761 35.855 64.7728 35.7331 64.9916 35.5162C65.2104 35.2993 65.3333 35.0051 65.3333 34.6984C65.3333 34.3916 65.2104 34.0974 64.9916 33.8805C64.7728 33.6636 64.4761 33.5417 64.1667 33.5417H57.1667C56.8572 33.5417 56.5605 33.6636 56.3417 33.8805C56.1229 34.0974 56 34.3916 56 34.6984Z" fill="white"></path><path d="M57.1667 40.4813H64.1667C64.4761 40.4813 64.7728 40.3595 64.9916 40.1425C65.2104 39.9256 65.3333 39.6315 65.3333 39.3247C65.3333 39.0179 65.2104 38.7238 64.9916 38.5069C64.7728 38.2899 64.4761 38.1681 64.1667 38.1681H57.1667C56.8572 38.1681 56.5605 38.2899 56.3417 38.5069C56.1229 38.7238 56 39.0179 56 39.3247C56 39.6315 56.1229 39.9256 56.3417 40.1425C56.5605 40.3595 56.8572 40.4813 57.1667 40.4813Z" fill="white"></path><path d="M68.8333 19.6624C68.5239 19.6624 68.2272 19.7842 68.0084 20.0011C67.7896 20.218 67.6667 20.5122 67.6667 20.819V24.2888H52.5C52.1906 24.2888 51.8938 24.4106 51.675 24.6276C51.4562 24.8445 51.3333 25.1386 51.3333 25.4454V43.9511C51.3333 44.2579 51.4562 44.5521 51.675 44.769C51.8938 44.9859 52.1906 45.1078 52.5 45.1078H64.1667C64.4761 45.1078 64.7728 44.9859 64.9916 44.769C65.2104 44.5521 65.3333 44.2579 65.3333 43.9511C65.3333 43.6444 65.2104 43.3502 64.9916 43.1333C64.7728 42.9164 64.4761 42.7945 64.1667 42.7945H53.6667V26.602H67.6667V47.421C67.6667 48.3412 67.2979 49.2238 66.6415 49.8745C65.9852 50.5252 65.0949 50.8908 64.1667 50.8908H5.83333C4.90508 50.8908 4.01484 50.5252 3.35846 49.8745C2.70208 49.2238 2.33333 48.3412 2.33333 47.421V43.9511C2.33333 43.6444 2.21042 43.3502 1.99162 43.1333C1.77283 42.9164 1.47609 42.7945 1.16667 42.7945C0.857247 42.7945 0.560501 42.9164 0.341709 43.1333C0.122916 43.3502 0 43.6444 0 43.9511V47.421C0.0018525 48.9542 0.617029 50.424 1.71059 51.5082C2.80415 52.5923 4.28681 53.2022 5.83333 53.204H20.9125C20.6208 55.3533 19.5037 57.3081 17.794 58.6609L15.9238 60.1437H12.8333C11.5957 60.1437 10.4087 60.6311 9.5335 61.4987C8.65833 62.3664 8.16667 63.5431 8.16667 64.7701V65.9267C8.16667 66.2335 8.28958 66.5277 8.50838 66.7446C8.72717 66.9615 9.02391 67.0833 9.33333 67.0833H43.1667C43.4761 67.0833 43.7728 66.9615 43.9916 66.7446C44.2104 66.5277 44.3333 66.2335 44.3333 65.9267C44.3333 65.62 44.2104 65.3258 43.9916 65.1089C43.7728 64.892 43.4761 64.7701 43.1667 64.7701H10.5C10.5 64.1566 10.7458 63.5682 11.1834 63.1344C11.621 62.7006 12.2145 62.4569 12.8333 62.4569H57.1667C57.7855 62.4569 58.379 62.7006 58.8166 63.1344C59.2542 63.5682 59.5 64.1566 59.5 64.7701H47.8333C47.5239 64.7701 47.2272 64.892 47.0084 65.1089C46.7896 65.3258 46.6667 65.62 46.6667 65.9267C46.6667 66.2335 46.7896 66.5277 47.0084 66.7446C47.2272 66.9615 47.5239 67.0833 47.8333 67.0833H60.6667C60.9761 67.0833 61.2728 66.9615 61.4916 66.7446C61.7104 66.5277 61.8333 66.2335 61.8333 65.9267V64.7701C61.8333 63.5431 61.3417 62.3664 60.4665 61.4987C59.5913 60.6311 58.4043 60.1437 57.1667 60.1437H54.0762L52.2095 58.6621C50.4987 57.3092 49.3803 55.3541 49.0875 53.204H64.1667C65.7132 53.2022 67.1958 52.5923 68.2894 51.5082C69.383 50.424 69.9981 48.9542 70 47.421V20.819C70 20.5122 69.8771 20.218 69.6583 20.0011C69.4395 19.7842 69.1428 19.6624 68.8333 19.6624ZM50.3592 60.1437H19.6408C21.6893 58.3662 22.9858 55.8879 23.2715 53.204H46.7285C47.0147 55.8878 48.3112 58.3658 50.3592 60.1437Z" fill="white"></path><path d="M64.1667 0H5.83333C4.28681 0.00183653 2.80415 0.61171 1.71059 1.69584C0.617029 2.77998 0.0018525 4.24985 0 5.78305V39.3247C0 39.6315 0.122916 39.9257 0.341709 40.1426C0.560501 40.3595 0.857247 40.4813 1.16667 40.4813C1.47609 40.4813 1.77283 40.3595 1.99162 40.1426C2.21042 39.9257 2.33333 39.6315 2.33333 39.3247V5.78305C2.33333 4.86279 2.70208 3.98023 3.35846 3.32951C4.01484 2.67879 4.90508 2.31322 5.83333 2.31322H64.1667C65.0949 2.31322 65.9852 2.67879 66.6415 3.32951C67.2979 3.98023 67.6667 4.86279 67.6667 5.78305V16.1925C67.6667 16.4993 67.7896 16.7935 68.0084 17.0104C68.2272 17.2273 68.5239 17.3491 68.8333 17.3491C69.1428 17.3491 69.4395 17.2273 69.6583 17.0104C69.8771 16.7935 70 16.4993 70 16.1925V5.78305C69.9981 4.24985 69.383 2.77998 68.2894 1.69584C67.1958 0.61171 65.7132 0.00183653 64.1667 0Z" fill="white"></path></svg>